<?xml version="1.0" encoding="UTF-8"?>
<svg id="Star" xmlns="http://www.w3.org/2000/svg" viewBox="0 0 144 144">
  <defs>
    <style>
      .cls-1 {
        fill: #30a0a8;
      }

      .cls-1, .cls-2 {
        stroke-width: 0px;
      }

      .cls-2 {
        fill: #fff;
      }
    </style>
  </defs>
  <circle class="cls-1" cx="72" cy="72" r="72"/>
  <path class="cls-2" d="m74.39,37.56l9.06,19.22c.39.83,1.14,1.4,2.01,1.53l20.25,3.08c2.19.33,3.06,3.15,1.48,4.77l-14.65,14.96c-.63.64-.92,1.57-.77,2.47l3.46,21.13c.37,2.28-1.91,4.03-3.87,2.95l-18.11-9.97c-.78-.43-1.71-.43-2.48,0l-18.11,9.97c-1.96,1.08-4.25-.66-3.87-2.95l3.46-21.13c.15-.91-.14-1.83-.77-2.47l-14.65-14.96c-1.58-1.62-.71-4.44,1.48-4.77l20.25-3.08c.87-.13,1.62-.7,2.01-1.53l9.06-19.22c.98-2.08,3.81-2.08,4.79,0Z"/>
</svg>