<?xml version="1.0" encoding="UTF-8"?>
<svg id="Thumbs_Up" data-name="Thumbs Up" xmlns="http://www.w3.org/2000/svg" viewBox="0 0 144 144">
  <defs>
    <style>
      .cls-1 {
        fill: #30a0a8;
      }

      .cls-1, .cls-2 {
        stroke-width: 0px;
      }

      .cls-2 {
        fill: #fff;
      }
    </style>
  </defs>
  <path class="cls-1" d="m89.86,9.89c1.85.04,3.5.26,4.91.67,1.87.54,2.92,1.09,3.48,1.46.62.41,1.14.95,1.61,1.66.87,1.32,1.27,2.17,1.45,2.65.19.51.47,1.45.71,3.08.31,2.08.37,2.96.38,3.25.03.82.04,1.92.04,3.28,0,1.7-.22,3.43-.65,5.14-.59,2.37-1.06,3.66-1.35,4.32-.49,1.14-1.25,2.67-2.24,4.54l-.04.07-.04.07c-.04.08-.21.4-.69,1.22-.6,1.03-1.07,1.98-1.44,2.91-.33.83-.64,1.76-.95,2.84l-2.55,8.92h34.21c2.81,0,5.1.98,7.2,3.08,2.1,2.1,3.08,4.39,3.08,7.2,0,3.49-1.02,6.29-3.22,8.81l-2.65,3.04,1.3,3.82c.81,2.37.98,3.8.98,4.58v.28c.12,2.96-.66,5.45-2.46,7.84l-2.14,2.84,1.03,3.41c.63,2.08.62,4.24-.04,6.62v.05s-.03.05-.03.05c-.57,2.16-1.52,3.84-2.91,5.16l-2.43,2.3.27,3.34c.39,4.86-.52,8.53-2.79,11.22-2.48,2.95-6.55,4.43-12.43,4.53h-11.55c-3.48,0-7.39-.42-11.6-1.26-4.42-.88-7.86-1.7-10.22-2.43-2.54-.79-6.12-1.96-10.64-3.49-9.06-3.17-13-4.04-15.26-4.27v-55.43c3.15-.58,6.28-2.81,10.5-7.44,3.23-3.54,6.41-7.35,9.45-11.32,4.83-6.18,7.29-8.92,8.5-10.14,1.7-1.7,3.13-3.88,4.26-6.49.95-2.19,1.59-3.98,1.95-5.49.29-1.18.7-3.03,1.26-5.63l.02-.11.02-.12c.39-2.17.74-3.87,1.03-5.03.15-.61.5-1.69,1.31-3.42.4-.87.86-1.59,1.35-2.16m-59.42,57.59v55.12h-5.55c.46-.35.91-.73,1.33-1.14,2.5-2.44,3.83-5.59,3.83-9.11s-1.3-6.54-3.76-9c-2.46-2.46-5.57-3.76-9-3.76s-6.67,1.32-9.11,3.83c-.43.44-.83.91-1.18,1.39v-37.33h23.44M7,119.95c.38.5.79.99,1.25,1.44.44.44.9.84,1.39,1.21h-2.64v-2.65M89.28,2.88c-1.56,0-2.91.57-4.05,1.71-1.2,1.2-2.22,2.7-3.06,4.5-.84,1.8-1.43,3.36-1.76,4.68-.33,1.32-.71,3.15-1.12,5.49-.54,2.52-.95,4.34-1.21,5.45-.27,1.11-.8,2.56-1.58,4.37-.78,1.8-1.71,3.24-2.79,4.32-1.98,1.98-5.01,5.58-9.09,10.8-2.94,3.84-5.97,7.47-9.09,10.89-3.12,3.42-5.4,5.19-6.84,5.31-1.5.12-2.79.73-3.87,1.84-1.08,1.11-1.62,2.42-1.62,3.92v57.69c0,1.56.57,2.89,1.71,4.01,1.14,1.11,2.49,1.7,4.05,1.76,2.1.06,6.84,1.38,14.22,3.96,4.62,1.56,8.24,2.74,10.85,3.55,2.61.81,6.26,1.68,10.93,2.61,4.68.93,9,1.39,12.96,1.39h11.61c7.98-.12,13.89-2.46,17.73-7.02,3.48-4.14,4.95-9.57,4.41-16.29,2.34-2.22,3.96-5.04,4.86-8.46,1.02-3.66,1.02-7.17,0-10.53,2.76-3.66,4.05-7.77,3.87-12.33,0-1.92-.45-4.2-1.35-6.84,3.3-3.78,4.95-8.25,4.95-13.41,0-4.68-1.71-8.73-5.13-12.15s-7.47-5.13-12.15-5.13h-24.93c.24-.84.48-1.56.72-2.16.24-.6.57-1.26.99-1.98s.72-1.26.9-1.62c1.08-2.04,1.9-3.72,2.48-5.04s1.14-3.12,1.71-5.4c.57-2.28.86-4.56.86-6.84,0-1.44-.01-2.61-.05-3.51-.03-.9-.18-2.25-.45-4.05-.27-1.8-.63-3.3-1.08-4.5-.45-1.2-1.17-2.55-2.16-4.05-.99-1.5-2.19-2.71-3.6-3.65-1.41-.93-3.21-1.71-5.4-2.34-2.19-.63-4.66-.94-7.42-.94h0ZM31.68,60.48H5.76c-1.56,0-2.91.57-4.05,1.71-1.14,1.14-1.71,2.49-1.71,4.05v57.6c0,1.56.57,2.91,1.71,4.05,1.14,1.14,2.49,1.71,4.05,1.71h25.92c1.56,0,2.91-.57,4.05-1.71,1.14-1.14,1.71-2.49,1.71-4.05v-57.6c0-1.56-.57-2.91-1.71-4.05-1.14-1.14-2.49-1.71-4.05-1.71h0Zm-14.39,57.63c-1.62,0-2.99-.55-4.1-1.66-1.11-1.11-1.66-2.47-1.66-4.1s.55-2.91,1.66-4.05c1.11-1.14,2.48-1.71,4.1-1.71s2.91.57,4.05,1.71c1.14,1.14,1.71,2.49,1.71,4.05s-.57,2.99-1.71,4.1c-1.14,1.11-2.49,1.66-4.05,1.66h0Z"/>
  <rect class="cls-1" x="5" y="64" width="28" height="61"/>
  <circle class="cls-2" cx="14" cy="112" r="7"/>
</svg>