<?xml version="1.0" encoding="UTF-8"?>
<svg id="Shaking_Hands" data-name="Shaking Hands" xmlns="http://www.w3.org/2000/svg" viewBox="0 0 144 144">
  <defs>
    <style>
      .cls-1 {
        fill: #30a0a8;
        fill-rule: evenodd;
        stroke-width: 0px;
      }
    </style>
  </defs>
  <path class="cls-1" d="m3.75,52.12l2.68,33.18c.36,3.43,1.17,5.63,2.14,6.84.83.93,2.12,1.32,3.32.99h13.49c1.46.15,2.91-.43,3.86-1.55l.06-.07c.97-1.63,1.45-3.5,1.38-5.4v-36.98c-.06-.16-.09-.33-.08-.51,0-.05,0-.09,0-.14-.11-1-.64-1.9-1.46-2.47-1.39-.73-2.96-1.05-4.53-.92H8.13c-1.38-.08-2.72.42-3.72,1.38-.78.94-1.06,2.56-.68,5.09v.56h.01Zm105.44-1.68c0-.56.03-1.12.11-1.68l-6.08-4.09c-.88-.59-1.84-1.27-2.81-1.94-3.52-2.44-7.03-4.94-10.93-5.96-2.28-.59-4.61-.91-6.96-.96-2.15-.06-4.31.18-6.4.7-1.22.31-2.4.76-3.52,1.34-.98.52-1.89,1.16-2.71,1.92l-4.17,4.89c-.13.24-.3.45-.52.61l-11.33,13.49c.15.79.48,1.54.98,2.17.55.67,1.27,1.18,2.09,1.48.95.34,1.95.46,2.95.36,1.9-.18,3.7-.93,5.18-2.14l3.15-2.64c.8-.66,1.46-1.27,2.12-1.86,1.36-1.32,2.84-2.49,4.43-3.52,3.52-2.11,7.03-2.18,10.55,3.66l17.81,32.19h6.06v-38Zm1.34-4.18c.27-1.19.59-1.54.94-1.86,1.88-1.5,6.64-2.82,6.64-2.82h15.44c3.27,0,5.9.58,7.76,1.99,2.04,1.58,3.01,3.98,2.6,7.42l-3.44,35.64c-.06,2.68-.97,5.27-2.6,7.4-1.69,1.9-4.19,2.87-6.72,2.62h-13.97c-1.75.14-3.48-.4-4.85-1.49-1.04-.87-1.88-1.96-2.45-3.2h-4.92s.64,3.79.09,5.52c-.54,1.62-1.55,3.05-2.89,4.1-1.32,1.04-2.88,1.73-4.53,2-1.65.28-3.34.09-4.89-.54-1.55,1.72-3.54,2.99-5.75,3.67-2.02.55-4.17.45-6.13-.28-1.68,2.02-3.96,3.44-6.51,4.05-2.64.49-5.38.08-7.76-1.17-.82.65-1.72,1.18-2.68,1.58-1.32.54-2.73.8-4.16.76-2.82.05-5.55-.94-7.67-2.8-1.75-1.74-3.21-3.75-4.31-5.96l-7.69-13.28h-7.29c-.26,1.48-.85,2.89-1.71,4.12l-.08.11c-1.6,1.97-4.08,3.02-6.61,2.8h-12.57c-2.34.52-4.77-.31-6.3-2.14-1.47-1.71-2.49-4.54-2.93-8.58v-.36L.2,52.33c-.54-3.59,0-6.13,1.5-7.86,1.63-1.76,3.95-2.74,6.35-2.89h16.67c2.27.07,4.54.59,6.53,1.71h0c1.38.88,2.85,4.15,2.85,4.15h11.19s5.37-3.62,8.35-4.64c3.12-.94,6.4-1.19,9.63-.75l3.83-4.56.14-.15c1.05-1,2.23-1.85,3.52-2.53,1.37-.7,2.81-1.25,4.3-1.64,2.41-.59,4.89-.86,7.37-.81,2.63.06,5.24.42,7.79,1.08h0c4.46,1.17,8.32,3.88,12.07,6.5.9.63,1.79,1.25,2.75,1.9l5.45,4.43h.04Zm-93.33,31.8c2.59-1.12,5.09,1.15,4.36,3.73-.28,1-1.11,1.82-2.12,2.09-2.09.57-3.98-.99-3.99-2.99v-.02c0-1.19.65-2.34,1.74-2.81Zm83.73,14.17c-.5-.22-.88-.65-1.03-1.17l-18.07-32.61c-2-3.35-3.81-3.44-5.57-2.4-1.39.92-2.69,1.97-3.88,3.13-.8.73-1.59,1.45-2.25,1.99l-3.2,2.64c-2.04,1.66-4.52,2.68-7.14,2.93-1.53.14-3.08-.06-4.52-.59-1.42-.53-2.68-1.43-3.64-2.6-1.09-1.38-1.74-3.06-1.86-4.82-.04-.53.15-1.05.53-1.43l9.76-11.61c-1.91-.05-3.81.22-5.64.79-2.78.97-5.39,2.34-7.77,4.08-.33.27-.75.4-1.17.39h-11.28v35.15h6.64c.68,0,1.31.38,1.62.98l8.2,14.24c.91,1.86,2.1,3.57,3.52,5.09,1.5,1.27,3.41,1.93,5.37,1.87.92.03,1.84-.14,2.69-.49.55-.22,1.06-.52,1.53-.88l-5.28-9.89c-.41-.91-.01-1.98.9-2.39.83-.37,1.8-.08,2.28.69l5.79,10.81c3.41,2.18,7.92,1.4,10.39-1.8l-8.33-13.1c-.54-.83-.31-1.95.53-2.5.84-.53,1.95-.28,2.5.55l8.78,13.79c1.39.62,2.95.75,4.43.37,1.56-.49,2.95-1.4,4.03-2.62l-7.93-14.97c-.48-.88-.15-1.98.74-2.46.88-.48,1.98-.15,2.46.74l8.2,15.49c1.07.6,2.31.81,3.52.59,1.05-.17,2.04-.6,2.87-1.27.78-.6,1.38-1.41,1.7-2.34.36-1.16.26-2.42-.27-3.52-.11-.26-.16-.55-.14-.83h.01Zm24.07-14.34c2.17.02,3.8,2.24,2.79,4.52-.28.62-.79,1.14-1.42,1.42-2.91,1.27-5.68-1.72-4-4.61.5-.85,1.46-1.32,2.45-1.32h.18Z"/>
</svg>