<?xml version="1.0" encoding="UTF-8"?>
<svg id="Heart" xmlns="http://www.w3.org/2000/svg" viewBox="0 0 144 144">
  <defs>
    <style>
      .cls-1 {
        fill: #30a0a8;
        stroke-width: 0px;
      }
    </style>
  </defs>
  <path class="cls-1" d="m109.84,1.69v7s0,0,0,0c8.61,0,16.15,4.22,21.21,11.88,7.13,10.78,7.88,26.11,1.97,40-14.75,34.67-50.95,63.91-63.07,73.02-11.59-9.05-45.45-37.64-59.39-72.86-5.54-13.99-4.49-29.3,2.75-39.95,5.17-7.61,12.73-11.8,21.28-11.8,10.08,0,21.05,5.69,31.74,16.47,1.43,1.44,3.41,2.26,5.43,2.26s3.94-.78,5.38-2.21c11.14-11.01,22.45-16.82,32.7-16.83V1.69m0,0c-11.11,0-24.09,5.49-37.62,18.85-.13.13-.29.19-.46.19s-.34-.06-.46-.19C58.28,7.41,45.58,2,34.59,2,8.41,2-8.06,32.73,4.05,63.32c17.87,45.14,65.83,78.99,65.83,78.99,0,0,50.78-34.79,69.59-78.99,12.86-30.21-3.04-61.63-29.63-61.62h0Z"/>
</svg>