<?xml version="1.0" encoding="UTF-8"?>
<svg id="Tooth" xmlns="http://www.w3.org/2000/svg" viewBox="0 0 144 144">
  <defs>
    <style>
      .cls-1 {
        fill: #30a0a8;
        stroke-width: 0px;
      }
    </style>
  </defs>
  <path class="cls-1" d="m69.96,9.78C78.71,3.88,91.54.29,103.8.51c11.52.21,22.64,3.76,29.69,11.87,2.32,2.67,4.18,5.75,5.66,9.23,1.46,3.41,2.55,7.17,3.37,11.28,1.59,8.01,1.83,16.93,1.04,26.13-.87,10.13-2.96,20.62-5.83,30.61-2.08,7.25-8.26,25.3-16.21,38.26-5.23,8.51-11.36,14.96-18,15.38-3.23.21-6.2-1.03-8.92-3.64-2.38-2.3-4.56-5.72-6.56-10.22l-.06-.11-2.59-6.56c-.36-.92-.81-2.15-1.3-3.48-2.5-6.85-6.16-16.91-11.46-18.19-4.44-1.07-7.98,7.65-10.16,13.02-.26.65-.51,1.26-.97,2.31-.24.55-.77,1.85-1.36,3.32-3.54,8.74-9.53,23.54-18.07,23.8-2.95.09-5.84-1.2-8.67-3.79-2.48-2.28-4.97-5.63-7.47-10.01-1.63-2.82-3.36-6.13-5.12-9.81-1.69-3.53-3.41-7.42-5.11-11.58-3.13-7.65-6.88-17.51-9.91-28.07C2.73,69.55.37,58.03.03,47.11c-.21-6.83.5-13.45,2.24-19.46,1.66-5.73,4.27-10.9,7.92-15.16C17.36,4.14,26.79.78,36.68.57c11.47-.24,23.55,3.82,33.28,9.21ZM13.69,44.69c1.2-6.92,3.64-13.36,7.65-18.71,3.66-4.88,8.6-8.81,15.03-11.32l2.05,5.24c-5.41,2.11-9.53,5.39-12.58,9.45-3.43,4.57-5.54,10.19-6.6,16.28l-5.55-.95h0Zm108.47,12.12h-.27c0-2.26-.84-4.23-2.53-5.91s-3.66-2.53-5.91-2.53v-.28c2.26,0,4.23-.84,5.91-2.53,1.69-1.69,2.53-3.66,2.53-5.91h.27c0,2.25.84,4.22,2.53,5.91s3.66,2.53,5.91,2.53v.27c-2.26,0-4.23.84-5.91,2.53-1.69,1.69-2.53,3.66-2.53,5.92h0Zm-19.85,5.91h-.22c0-1.77-.66-3.33-1.99-4.65-1.32-1.33-2.87-1.99-4.65-1.99v-.22c1.77,0,3.33-.67,4.65-1.99,1.33-1.33,1.99-2.88,1.99-4.65h.22c0,1.77.66,3.33,1.99,4.65,1.32,1.33,2.87,1.99,4.65,1.99v.22c-1.77,0-3.33.67-4.65,1.99-1.33,1.32-1.99,2.87-1.99,4.65Zm4.75-19.97h-.43c0-3.51-1.31-6.58-3.94-9.21-2.63-2.63-5.69-3.94-9.21-3.94v-.43c3.51,0,6.58-1.31,9.21-3.94,2.62-2.63,3.94-5.7,3.94-9.2h.43c0,3.51,1.31,6.58,3.94,9.21s5.69,3.94,9.21,3.94v.43c-3.51,0-6.58,1.31-9.21,3.94-2.62,2.62-3.94,5.7-3.94,9.21Zm-32.22-29.42c5.59,4.01,7.46,5.93,10.75,10.21-4.4-1.43-9.82-3.8-14.19-6.37-.91-.53-1.78-1.1-2.69-1.63-9.23-5.39-20.95-9.58-31.9-9.35-8.39.18-16.35,2.99-22.33,9.96-3.12,3.63-5.35,8.09-6.79,13.07-1.57,5.43-2.21,11.47-2.02,17.74.31,10.34,2.6,21.4,5.56,31.74,3,10.47,6.66,20.08,9.69,27.49,1.64,4,3.32,7.79,4.98,11.27s3.33,6.66,4.92,9.42v.02c2.22,3.87,4.36,6.78,6.42,8.67,1.72,1.57,3.29,2.36,4.7,2.32,4.84-.15,9.97-12.82,13-20.3.45-1.12.86-2.12,1.43-3.43.12-.26.49-1.18.9-2.2,2.87-7.07,7.55-18.57,16.7-16.36,8.23,1.99,12.51,13.73,15.43,21.73.43,1.19.83,2.28,1.25,3.35l2.59,6.56h0c1.68,3.76,3.44,6.55,5.28,8.33,1.53,1.48,3.09,2.18,4.67,2.08,4.47-.29,9.21-5.62,13.55-12.7,7.62-12.42,13.58-29.85,15.6-36.87,2.77-9.66,4.8-19.78,5.63-29.53.74-8.7.53-17.1-.96-24.56-.75-3.77-1.73-7.17-3.01-10.18-1.26-2.94-2.81-5.53-4.74-7.75-5.89-6.78-15.48-9.75-25.52-9.94-10.38-.19-21.14,2.58-28.88,7.2h0Z"/>
</svg>