<svg viewBox="0 0 67 67" xml:space="preserve" xmlns="http://www.w3.org/2000/svg" enable-background="new 0 0 67 67"><path d="M42.271 26.578v-.006c.502 0 1.005.01 1.508-.002a1.224 1.224 0 0 0 1.172-1.217v-2.89c0-.691-.547-1.24-1.236-1.241h-2.883a1.234 1.234 0 0 0-1.236 1.243c-.001.955-.004 1.91.003 2.865a1.4 1.4 0 0 0 .073.426c.173.508.639.82 1.209.823l1.39-.001zM33 27.817a6.181 6.181 0 0 0-.142 12.361c3.454.074 6.248-2.686 6.321-6.043.075-3.46-2.717-6.32-6.179-6.318zm-11.954 3.299v13.627c0 .649.562 1.208 1.212 1.208h21.479c.656 0 1.215-.557 1.215-1.212V31.117H42.04a9.544 9.544 0 0 1 .376 4.014c-.161 1.363-.601 2.631-1.316 3.803s-1.644 2.145-2.779 2.918a9.482 9.482 0 0 1-9.946.428c-1.579-.885-2.819-2.12-3.685-3.713-1.289-2.373-1.495-4.865-.739-7.451h-2.905zm24.159 18.139c.159-.026.318-.049.475-.083 1.246-.265 2.264-1.304 2.508-2.557.025-.137.045-.273.067-.409V21.794c-.021-.133-.04-.268-.065-.401a3.301 3.301 0 0 0-2.78-2.618c-.058-.007-.113-.02-.17-.03H20.761c-.147.027-.296.047-.441.08a3.29 3.29 0 0 0-2.545 2.766c-.008.057-.02.114-.029.171V46.24c.028.154.05.311.085.465a3.302 3.302 0 0 0 2.77 2.52c.064.008.13.021.195.03h24.409zM33 64C16.432 64 3 50.569 3 34S16.432 4 33 4s30 13.431 30 30-13.432 30-30 30z" fill-rule="evenodd" clip-rule="evenodd" fill="#b3b3b3" class="fill-d8d9d8"></path></svg>