<?xml version="1.0" encoding="utf-8"?><svg version="1.1" id="Layer_1" xmlns="http://www.w3.org/2000/svg" xmlns:xlink="http://www.w3.org/1999/xlink" x="0px" y="0px" viewBox="0 0 89.63 122.88" style="enable-background:new 0 0 89.63 122.88" xml:space="preserve"><style type="text/css">.st0{fill-rule:evenodd;clip-rule:evenodd;}</style><g><path class="st0" d="M7.43,3.92c5.86-4.47,13.99-4.72,22.68-1.82C46.74,7.64,42.02,8.16,58.89,2.2c10.84-3.83,20.77-2.76,26.39,4.1 c5.19,6.32,4.66,14.28,3.81,21.95c-1.19,10.78-4.7,21.14-10.49,31.09c3.38,20.58,1.87,36.87-0.67,48.62 c-3.61,16.7-10.99,22.52-14.95,0.17c-0.41-2.29-0.61-4.7-0.68-5.38c-1.57-15.9-2.94-31.75-18.28-31.69 c-14.2,3.12-15,13.46-16.1,29.76c-0.07,1.04-0.32,4.72-0.75,7.32c-3.67,22.21-11.51,16.97-14.84,0 c-2.01-10.27-3.12-26.9-2.27-48.94C5.39,48.55,1.79,37.85,0.51,26.8C-0.55,17.68-0.66,10.09,7.43,3.92L7.43,3.92z"/></g></svg>